<svg width="60" height="28" viewBox="0 0 60 28" fill="none" xmlns="http://www.w3.org/2000/svg">
<rect width="60" height="28" rx="2" fill="#F93E3E"/>
<path d="M7.89569 20H4.28631V9.81818H7.92551C8.94966 9.81818 9.83129 10.022 10.5704 10.4297C11.3095 10.834 11.8779 11.4157 12.2757 12.1747C12.6767 12.9337 12.8772 13.8419 12.8772 14.8991C12.8772 15.9598 12.6767 16.8712 12.2757 17.6335C11.8779 18.3958 11.3062 18.9808 10.5605 19.3885C9.81803 19.7962 8.92978 20 7.89569 20ZM6.43901 18.1555H7.8062C8.44256 18.1555 8.97784 18.0429 9.41202 17.8175C9.84952 17.5888 10.1776 17.2358 10.3964 16.7585C10.6185 16.2779 10.7295 15.6581 10.7295 14.8991C10.7295 14.1468 10.6185 13.532 10.3964 13.0547C10.1776 12.5774 9.85118 12.2261 9.41699 12.0007C8.98281 11.7753 8.44753 11.6626 7.81117 11.6626H6.43901V18.1555ZM14.4719 20V9.81818H21.3327V11.593H16.6246V14.0192H20.9797V15.794H16.6246V18.2251H21.3525V20H14.4719ZM23.0441 20V9.81818H25.1968V18.2251H29.5619V20H23.0441ZM30.9875 20V9.81818H37.8483V11.593H33.1402V14.0192H37.4953V15.794H33.1402V18.2251H37.8682V20H30.9875ZM39.172 11.593V9.81818H47.5342V11.593H44.417V20H42.2892V11.593H39.172ZM48.9113 20V9.81818H55.7721V11.593H51.064V14.0192H55.4191V15.794H51.064V18.2251H55.792V20H48.9113Z" fill="white"/>
</svg>
