<svg width="60" height="28" viewBox="0 0 60 28" fill="none" xmlns="http://www.w3.org/2000/svg">
<rect width="60" height="28" rx="2" fill="#61AFFE"/>
<path d="M23.8493 12.1094C23.7797 11.8674 23.6819 11.6536 23.5559 11.468C23.43 11.2791 23.2759 11.12 23.0936 10.9908C22.9146 10.8582 22.7091 10.7571 22.4771 10.6875C22.2484 10.6179 21.9949 10.5831 21.7164 10.5831C21.1961 10.5831 20.7387 10.7124 20.3443 10.9709C19.9532 11.2294 19.6483 11.6056 19.4295 12.0994C19.2108 12.59 19.1014 13.1899 19.1014 13.8991C19.1014 14.6084 19.2091 15.2116 19.4245 15.7088C19.64 16.206 19.9449 16.5855 20.3393 16.8473C20.7337 17.1058 21.1994 17.2351 21.7363 17.2351C22.2235 17.2351 22.6395 17.1489 22.9842 16.9766C23.3322 16.8009 23.5974 16.554 23.7797 16.2358C23.9653 15.9176 24.0581 15.5414 24.0581 15.1072L24.4956 15.1719H21.8706V13.5511H26.1312V14.8338C26.1312 15.7287 25.9423 16.4976 25.5645 17.1406C25.1866 17.7803 24.6663 18.2741 24.0034 18.6222C23.3405 18.9669 22.5815 19.1392 21.7264 19.1392C20.7718 19.1392 19.9333 18.9287 19.2108 18.5078C18.4882 18.0836 17.9248 17.482 17.5204 16.7031C17.1194 15.9209 16.9189 14.9929 16.9189 13.919C16.9189 13.0937 17.0382 12.358 17.2768 11.7116C17.5188 11.062 17.8568 10.5118 18.291 10.0611C18.7252 9.61032 19.2306 9.26728 19.8074 9.03196C20.3841 8.79664 21.0088 8.67898 21.6816 8.67898C22.2583 8.67898 22.7953 8.76349 23.2924 8.93253C23.7896 9.09825 24.2304 9.33357 24.6149 9.63849C25.0027 9.94342 25.3192 10.3063 25.5645 10.7273C25.8097 11.1449 25.9672 11.6056 26.0368 12.1094H23.8493ZM27.7482 19V8.81818H34.609V10.593H29.9009V13.0192H34.256V14.794H29.9009V17.2251H34.6289V19H27.7482ZM35.9327 10.593V8.81818H44.2949V10.593H41.1777V19H39.0499V10.593H35.9327Z" fill="white"/>
</svg>
