<svg width="60" height="28" viewBox="0 0 60 28" fill="none" xmlns="http://www.w3.org/2000/svg">
<rect width="60" height="28" rx="2" fill="#49CC90"/>
<path d="M11.3644 19V8.81818H15.3815C16.1537 8.81818 16.8116 8.96567 17.3552 9.26065C17.8988 9.55232 18.3131 9.95833 18.5981 10.4787C18.8865 10.9957 19.0306 11.5923 19.0306 12.2685C19.0306 12.9446 18.8848 13.5412 18.5931 14.0582C18.3015 14.5753 17.8789 14.978 17.3254 15.2663C16.7752 15.5547 16.109 15.6989 15.3268 15.6989H12.7664V13.9737H14.9788C15.3931 13.9737 15.7345 13.9025 16.0029 13.7599C16.2747 13.6141 16.4769 13.4136 16.6095 13.1584C16.7454 12.8999 16.8133 12.6032 16.8133 12.2685C16.8133 11.9304 16.7454 11.6354 16.6095 11.3835C16.4769 11.1283 16.2747 10.9311 16.0029 10.7919C15.7311 10.6494 15.3865 10.5781 14.9688 10.5781H13.5171V19H11.3644ZM29.7854 13.9091C29.7854 15.0194 29.575 15.964 29.154 16.7429C28.7364 17.5218 28.1663 18.1167 27.4438 18.5277C26.7246 18.9354 25.9159 19.1392 25.0177 19.1392C24.1128 19.1392 23.3008 18.9337 22.5816 18.5227C21.8624 18.1117 21.2939 17.5168 20.8763 16.7379C20.4587 15.959 20.2499 15.0161 20.2499 13.9091C20.2499 12.7988 20.4587 11.8542 20.8763 11.0753C21.2939 10.2964 21.8624 9.70312 22.5816 9.29545C23.3008 8.88447 24.1128 8.67898 25.0177 8.67898C25.9159 8.67898 26.7246 8.88447 27.4438 9.29545C28.1663 9.70312 28.7364 10.2964 29.154 11.0753C29.575 11.8542 29.7854 12.7988 29.7854 13.9091ZM27.6029 13.9091C27.6029 13.1899 27.4952 12.5833 27.2797 12.0895C27.0676 11.5956 26.7677 11.2211 26.3799 10.9659C25.9921 10.7107 25.538 10.5831 25.0177 10.5831C24.4973 10.5831 24.0432 10.7107 23.6555 10.9659C23.2677 11.2211 22.9661 11.5956 22.7506 12.0895C22.5385 12.5833 22.4324 13.1899 22.4324 13.9091C22.4324 14.6283 22.5385 15.2348 22.7506 15.7287C22.9661 16.2225 23.2677 16.5971 23.6555 16.8523C24.0432 17.1075 24.4973 17.2351 25.0177 17.2351C25.538 17.2351 25.9921 17.1075 26.3799 16.8523C26.7677 16.5971 27.0676 16.2225 27.2797 15.7287C27.4952 15.2348 27.6029 14.6283 27.6029 13.9091ZM36.9035 11.7464C36.8637 11.3454 36.693 11.0339 36.3914 10.8118C36.0898 10.5897 35.6805 10.4787 35.1634 10.4787C34.8121 10.4787 34.5155 10.5284 34.2735 10.6278C34.0316 10.724 33.846 10.8582 33.7167 11.0305C33.5908 11.2029 33.5278 11.3984 33.5278 11.6172C33.5212 11.7995 33.5593 11.9586 33.6421 12.0945C33.7283 12.2304 33.846 12.348 33.9951 12.4474C34.1443 12.5436 34.3166 12.6281 34.5122 12.701C34.7077 12.7706 34.9165 12.8303 35.1386 12.88L36.0534 13.0987C36.4975 13.1982 36.9052 13.3307 37.2764 13.4964C37.6476 13.6622 37.9691 13.866 38.2409 14.108C38.5126 14.3499 38.7231 14.6349 38.8722 14.9631C39.0247 15.2912 39.1026 15.6674 39.1059 16.0916C39.1026 16.7147 38.9435 17.255 38.6286 17.7124C38.3171 18.1664 37.8663 18.5194 37.2764 18.7713C36.6897 19.0199 35.9821 19.1442 35.1535 19.1442C34.3315 19.1442 33.6156 19.0182 33.0058 18.7663C32.3992 18.5144 31.9253 18.1416 31.5839 17.6477C31.2458 17.1506 31.0685 16.5357 31.0519 15.8033H33.135C33.1582 16.1446 33.256 16.4297 33.4284 16.6584C33.604 16.8838 33.8377 17.0545 34.1294 17.1705C34.4243 17.2831 34.7574 17.3395 35.1286 17.3395C35.4932 17.3395 35.8097 17.2865 36.0782 17.1804C36.35 17.0743 36.5605 16.9268 36.7096 16.7379C36.8588 16.549 36.9333 16.3319 36.9333 16.0866C36.9333 15.858 36.8654 15.6657 36.7295 15.5099C36.5969 15.3542 36.4014 15.2216 36.1428 15.1122C35.8876 15.0028 35.5744 14.9034 35.2032 14.8139L34.0945 14.5355C33.2361 14.3267 32.5583 14.0002 32.0612 13.5561C31.564 13.112 31.3171 12.5137 31.3204 11.7614C31.3171 11.1449 31.4811 10.6063 31.8126 10.1456C32.1473 9.6849 32.6064 9.32528 33.1897 9.06676C33.7731 8.80824 34.4359 8.67898 35.1784 8.67898C35.934 8.67898 36.5936 8.80824 37.157 9.06676C37.7238 9.32528 38.1646 9.6849 38.4795 10.1456C38.7944 10.6063 38.9568 11.1399 38.9667 11.7464H36.9035ZM40.1661 10.593V8.81818H48.5283V10.593H45.4111V19H43.2833V10.593H40.1661Z" fill="white"/>
</svg>
