<svg width="60" height="28" viewBox="0 0 60 28" fill="none" xmlns="http://www.w3.org/2000/svg">
<rect width="60" height="28" rx="2" fill="#FCA130"/>
<path d="M17.0705 20V9.81818H21.0875C21.8598 9.81818 22.5177 9.96567 23.0613 10.2607C23.6048 10.5523 24.0191 10.9583 24.3042 11.4787C24.5925 11.9957 24.7367 12.5923 24.7367 13.2685C24.7367 13.9446 24.5909 14.5412 24.2992 15.0582C24.0075 15.5753 23.5849 15.978 23.0314 16.2663C22.4812 16.5547 21.815 16.6989 21.0328 16.6989H18.4725V14.9737H20.6848C21.0991 14.9737 21.4405 14.9025 21.709 14.7599C21.9808 14.6141 22.1829 14.4136 22.3155 14.1584C22.4514 13.8999 22.5194 13.6032 22.5194 13.2685C22.5194 12.9304 22.4514 12.6354 22.3155 12.3835C22.1829 12.1283 21.9808 11.9311 21.709 11.7919C21.4372 11.6494 21.0925 11.5781 20.6749 11.5781H19.2232V20H17.0705ZM32.424 9.81818H34.5767V16.4304C34.5767 17.1728 34.3994 17.8224 34.0447 18.3793C33.6934 18.9361 33.2012 19.3703 32.5682 19.6818C31.9351 19.9901 31.1977 20.1442 30.3558 20.1442C29.5107 20.1442 28.7715 19.9901 28.1385 19.6818C27.5054 19.3703 27.0133 18.9361 26.6619 18.3793C26.3106 17.8224 26.1349 17.1728 26.1349 16.4304V9.81818H28.2876V16.2464C28.2876 16.6342 28.3722 16.9789 28.5412 17.2805C28.7135 17.5821 28.9555 17.8191 29.267 17.9915C29.5786 18.1638 29.9415 18.25 30.3558 18.25C30.7734 18.25 31.1364 18.1638 31.4446 17.9915C31.7562 17.8191 31.9964 17.5821 32.1655 17.2805C32.3378 16.9789 32.424 16.6342 32.424 16.2464V9.81818ZM35.96 11.593V9.81818H44.3223V11.593H41.2051V20H39.0772V11.593H35.96Z" fill="white"/>
</svg>
